<svg xmlns="http://www.w3.org/2000/svg" viewBox="0 0 155 130" width="155" height="130">
  <rect width="155" height="130" rx="4" fill="#F5F0E8"/>
  <g transform="translate(43, 8) scale(0.2857)" stroke="#0C1220">
    <g fill="none" stroke="#D4A853" stroke-linecap="round" stroke-linejoin="round">
    
    <!-- D frame (thick strokes) -->
    <g stroke-width="5.0">
      <!-- Vertical stem (ascender + bowl height) -->
      <line x1="56" y1="16" x2="56" y2="264"/>
      <!-- Top horizontal -->
      <line x1="56" y1="100" x2="92" y2="100"/>
      <!-- Bottom horizontal -->
      <line x1="56" y1="264" x2="92" y2="264"/>
      <!-- Bowl arc (semicircle right) -->
      <path d="M 92 100 A 82.0 82.0 0 0 1 92 264"/>
    </g>
    
    <!-- Sun dome (FILLED semicircle) -->
    <path d="M 68.3 177.0 A 36 36 0 0 1 140.3 177.0 Z" 
          fill="#D4A853" stroke="none"/>
    
    <!-- Sun rays (thin, delicate) -->
    <g stroke-width="1.8">
  <line x1="104.3" y1="173.0" x2="58.0" y2="173.0"/>
  <line x1="104.3" y1="173.0" x2="58.0" y2="160.6"/>
  <line x1="104.3" y1="173.0" x2="58.0" y2="146.3"/>
  <line x1="104.3" y1="173.0" x2="63.3" y2="132.0"/>
  <line x1="104.3" y1="173.0" x2="75.3" y2="122.8"/>
  <line x1="104.3" y1="173.0" x2="89.3" y2="117.0"/>
  <line x1="104.3" y1="173.0" x2="104.3" y2="115.0"/>
  <line x1="104.3" y1="173.0" x2="119.3" y2="117.0"/>
  <line x1="104.3" y1="173.0" x2="133.3" y2="122.8"/>
  <line x1="104.3" y1="173.0" x2="145.3" y2="132.0"/>
  <line x1="104.3" y1="173.0" x2="154.5" y2="144.0"/>
  <line x1="104.3" y1="173.0" x2="160.3" y2="158.0"/>
  <line x1="104.3" y1="173.0" x2="162.3" y2="173.0"/>
    </g>
    
  </g>
  </g>
  <g fill="#0C1220">
    <g opacity="0.8">
    <path d="M592 708Q588 670 586.5 634.5Q585 599 585 580Q585 556 586.0 535.0Q587 514 588 498H565Q558 568 546.0 608.5Q534 649 504.0 667.0Q474 685 411 685H357V116Q357 76 364.5 56.0Q372 36 394.0 29.0Q416 22 458 20V0Q432 2 392.0 2.5Q352 3 311 3Q266 3 226.5 2.5Q187 2 163 0V20Q205 22 227.0 29.0Q249 36 256.5 56.0Q264 76 264 116V685H210Q148 685 117.5 667.0Q87 649 75.0 608.5Q63 568 56 498H33Q35 514 35.5 535.0Q36 556 36 580Q36 599 34.5 634.5Q33 670 29 708Q71 707 120.5 706.0Q170 705 220.0 705.0Q270 705 311 705Q352 705 401.5 705.0Q451 705 501.0 706.0Q551 707 592 708Z" transform="translate(20.0, 104.0) scale(0.028000, -0.028000)"/>
    <path d="M186 783V409Q212 477 258.5 503.0Q305 529 356 529Q394 529 419.5 519.0Q445 509 462 491Q481 471 489.0 441.0Q497 411 497 360V93Q497 51 514.5 36.0Q532 21 573 21V0Q556 1 521.0 2.5Q486 4 453 4Q420 4 388.5 2.5Q357 1 341 0V21Q377 21 392.0 36.0Q407 51 407 93V382Q407 413 402.0 439.0Q397 465 379.5 481.0Q362 497 326 497Q285 497 253.5 474.0Q222 451 204.0 410.0Q186 369 186 316V93Q186 51 201.0 36.0Q216 21 252 21V0Q236 1 204.5 2.5Q173 4 140 4Q107 4 72.0 2.5Q37 1 20 0V21Q61 21 78.5 36.0Q96 51 96 93V663Q96 708 80.0 729.5Q64 751 20 751V772Q52 769 82 769Q111 769 137.5 772.5Q164 776 186 783Z" transform="translate(37.4, 104.0) scale(0.028000, -0.028000)"/>
    <path d="M272 529Q360 529 409.5 475.5Q459 422 459 309H106L105 328H363Q365 377 355.0 418.5Q345 460 323.5 485.0Q302 510 268 510Q222 510 186.5 464.0Q151 418 144 318L147 314Q145 299 144.0 281.0Q143 263 143 245Q143 177 165.0 128.0Q187 79 222.5 53.5Q258 28 296 28Q326 28 353.0 37.5Q380 47 403.0 69.0Q426 91 443 128L463 120Q452 87 427.0 56.0Q402 25 364.0 5.5Q326 -14 276 -14Q204 -14 152.5 19.0Q101 52 73.5 110.5Q46 169 46 245Q46 333 74.0 396.5Q102 460 153.0 494.5Q204 529 272 529Z" transform="translate(53.9, 104.0) scale(0.028000, -0.028000)"/>
    </g>
    <path d="M315 708Q494 708 581.0 618.5Q668 529 668 362Q668 253 625.5 171.5Q583 90 502.0 45.0Q421 0 306 0Q291 0 266.0 1.0Q241 2 214.5 2.5Q188 3 166 3Q131 3 97.0 2.5Q63 2 42 0V20Q76 22 93.5 28.0Q111 34 117.0 52.0Q123 70 123 106V602Q123 639 117.0 656.5Q111 674 93.5 680.5Q76 687 42 688V708Q63 707 97.0 705.5Q131 704 164 705Q199 706 243.0 707.0Q287 708 315 708ZM290 690Q244 690 230.0 673.0Q216 656 216 604V104Q216 52 230.5 35.0Q245 18 291 18Q400 18 460.0 57.5Q520 97 544.0 173.0Q568 249 568 358Q568 470 541.5 543.5Q515 617 454.5 653.5Q394 690 290 690Z" transform="translate(73.0, 104.0) scale(0.028000, -0.028000)"/>
    <path d="M272 529Q360 529 409.5 475.5Q459 422 459 309H106L105 328H363Q365 377 355.0 418.5Q345 460 323.5 485.0Q302 510 268 510Q222 510 186.5 464.0Q151 418 144 318L147 314Q145 299 144.0 281.0Q143 263 143 245Q143 177 165.0 128.0Q187 79 222.5 53.5Q258 28 296 28Q326 28 353.0 37.5Q380 47 403.0 69.0Q426 91 443 128L463 120Q452 87 427.0 56.0Q402 25 364.0 5.5Q326 -14 276 -14Q204 -14 152.5 19.0Q101 52 73.5 110.5Q46 169 46 245Q46 333 74.0 396.5Q102 460 153.0 494.5Q204 529 272 529Z" transform="translate(93.3, 104.0) scale(0.028000, -0.028000)"/>
    <path d="M208 529Q248 529 276.0 516.0Q304 503 317 492Q350 465 357 528H380Q378 500 377.0 461.5Q376 423 376 358H353Q347 395 332.5 430.0Q318 465 290.0 487.5Q262 510 217 510Q182 510 158.5 490.5Q135 471 135 433Q135 403 153.0 381.5Q171 360 200.0 341.5Q229 323 263 301Q301 277 332.0 252.0Q363 227 381.5 197.0Q400 167 400 126Q400 80 376.0 49.0Q352 18 313.5 2.0Q275 -14 229 -14Q207 -14 187.5 -10.5Q168 -7 150 0Q140 5 129.5 12.0Q119 19 109 27Q99 35 91.0 26.5Q83 18 79 -7H56Q58 25 59.0 71.0Q60 117 60 193H83Q90 137 103.0 95.0Q116 53 144.0 29.5Q172 6 222 6Q242 6 262.5 15.0Q283 24 297.0 45.0Q311 66 311 101Q311 145 279.0 173.0Q247 201 198 232Q162 255 130.5 278.0Q99 301 79.5 330.0Q60 359 60 400Q60 445 80.5 473.5Q101 502 135.0 515.5Q169 529 208 529Z" transform="translate(107.4, 104.0) scale(0.028000, -0.028000)"/>
    <path d="M186 784V93Q186 51 201.0 36.0Q216 21 252 21V0Q236 1 204.5 2.5Q173 4 141 4Q107 4 72.0 2.5Q37 1 20 0V21Q61 21 78.5 36.0Q96 51 96 93V664Q96 709 80.0 730.5Q64 752 20 752V773Q52 770 82 770Q111 770 137.5 773.5Q164 777 186 784ZM504 515V495Q479 493 457.0 481.5Q435 470 414 448L273 300L287 328L473 73Q490 50 505.5 37.0Q521 24 543 21V0Q532 1 508.5 2.5Q485 4 462 4Q431 4 399.0 2.5Q367 1 351 0V21Q371 21 379.0 31.0Q387 41 376 55L261 223Q242 250 226.5 258.0Q211 266 182 267V287Q214 291 234.0 300.5Q254 310 272 329L346 406Q378 439 378.0 458.5Q378 478 357.5 486.5Q337 495 304 495V515Q330 514 362.5 512.5Q395 511 417 511Q434 511 450.0 511.5Q466 512 480.0 513.0Q494 514 504 515Z" transform="translate(119.9, 104.0) scale(0.028000, -0.028000)"/>
    <g opacity="0.6" letter-spacing="2">
    <path d="M297 708V688Q263 687 245.5 680.5Q228 674 222.0 656.5Q216 639 216 602V106Q216 70 222.0 52.0Q228 34 245.5 28.0Q263 22 297 20V0Q274 2 239.5 2.5Q205 3 170 3Q131 3 97.0 2.5Q63 2 42 0V20Q76 22 93.5 28.0Q111 34 117.0 52.0Q123 70 123 106V602Q123 639 117.0 656.5Q111 674 93.5 680.5Q76 687 42 688V708Q63 707 97.0 706.0Q131 705 170 705Q205 705 239.5 706.0Q274 707 297 708Z" transform="translate(49.3, 118.0) scale(0.008000, -0.008000)"/>
    <path d="M670 708V688Q636 687 618.5 678.0Q601 669 595.0 649.0Q589 629 589 592V-5Q583 -5 577.5 -5.0Q572 -5 566 -5L146 644V116Q146 80 152.5 59.5Q159 39 178.5 30.5Q198 22 237 20V0Q219 2 190.0 2.5Q161 3 135 3Q110 3 84.5 2.5Q59 2 42 0V20Q76 22 93.5 30.5Q111 39 117.0 59.5Q123 80 123 116V602Q123 639 117.0 656.5Q111 674 93.5 680.5Q76 687 42 688V708Q59 707 84.5 706.0Q110 705 135 705Q157 705 177.0 706.0Q197 707 213 708L566 164V592Q566 629 559.5 649.0Q553 669 533.5 678.0Q514 687 475 688V708Q493 707 522.5 706.0Q552 705 577 705Q603 705 628.5 706.0Q654 707 670 708Z" transform="translate(52.0, 118.0) scale(0.008000, -0.008000)"/>
    <path d="M592 708Q588 670 586.5 634.5Q585 599 585 580Q585 556 586.0 535.0Q587 514 588 498H565Q558 568 546.0 608.5Q534 649 504.0 667.0Q474 685 411 685H357V116Q357 76 364.5 56.0Q372 36 394.0 29.0Q416 22 458 20V0Q432 2 392.0 2.5Q352 3 311 3Q266 3 226.5 2.5Q187 2 163 0V20Q205 22 227.0 29.0Q249 36 256.5 56.0Q264 76 264 116V685H210Q148 685 117.5 667.0Q87 649 75.0 608.5Q63 568 56 498H33Q35 514 35.5 535.0Q36 556 36 580Q36 599 34.5 634.5Q33 670 29 708Q71 707 120.5 706.0Q170 705 220.0 705.0Q270 705 311 705Q352 705 401.5 705.0Q451 705 501.0 706.0Q551 707 592 708Z" transform="translate(57.6, 118.0) scale(0.008000, -0.008000)"/>
    <path d="M541 708Q537 673 535.5 640.0Q534 607 534 590Q534 572 535.0 555.5Q536 539 537 528H514Q508 587 497.0 621.5Q486 656 459.5 670.5Q433 685 380 685H297Q263 685 245.5 679.5Q228 674 222.0 656.5Q216 639 216 602V106Q216 70 222.0 52.0Q228 34 245.5 28.5Q263 23 297 23H370Q433 23 465.5 40.0Q498 57 512.5 95.5Q527 134 534 200H557Q554 173 554 128Q554 109 555.5 73.5Q557 38 561 0Q510 2 446.0 2.5Q382 3 332 3Q310 3 275.5 3.0Q241 3 201.0 2.5Q161 2 120.0 1.5Q79 1 42 0V20Q76 22 93.5 28.0Q111 34 117.0 52.0Q123 70 123 106V602Q123 639 117.0 656.5Q111 674 93.5 680.5Q76 687 42 688V708Q79 707 120.0 706.5Q161 706 201.0 705.5Q241 705 275.5 705.0Q310 705 332 705Q378 705 436.5 705.5Q495 706 541 708ZM369 366Q369 366 369.0 356.0Q369 346 369 346H186Q186 346 186.0 356.0Q186 366 186 366ZM398 498Q394 441 394.5 411.0Q395 381 395 356Q395 331 396.0 301.0Q397 271 401 214H378Q374 246 368.5 276.5Q363 307 344.5 326.5Q326 346 282 346V366Q315 366 332.5 379.5Q350 393 358.0 414.0Q366 435 369.0 457.5Q372 480 375 498Z" transform="translate(62.6, 118.0) scale(0.008000, -0.008000)"/>
    <path d="M297 708V688Q263 687 245.5 680.5Q228 674 222.0 656.5Q216 639 216 602V106Q216 70 222.0 52.0Q228 34 245.5 28.5Q263 23 297 23H370Q417 23 446.5 33.0Q476 43 493.5 64.5Q511 86 520.0 122.0Q529 158 534 210H557Q554 179 554 128Q554 109 555.5 73.5Q557 38 561 0Q510 2 446.0 2.5Q382 3 332 3Q310 3 275.5 3.0Q241 3 201.0 2.5Q161 2 120.0 1.5Q79 1 42 0V20Q76 22 93.5 28.0Q111 34 117.0 52.0Q123 70 123 106V602Q123 639 117.0 656.5Q111 674 93.5 680.5Q76 687 42 688V708Q63 707 97.0 706.0Q131 705 170 705Q205 705 239.5 706.0Q274 707 297 708Z" transform="translate(67.5, 118.0) scale(0.008000, -0.008000)"/>
    <path d="M297 708V688Q263 687 245.5 680.5Q228 674 222.0 656.5Q216 639 216 602V106Q216 70 222.0 52.0Q228 34 245.5 28.5Q263 23 297 23H370Q417 23 446.5 33.0Q476 43 493.5 64.5Q511 86 520.0 122.0Q529 158 534 210H557Q554 179 554 128Q554 109 555.5 73.5Q557 38 561 0Q510 2 446.0 2.5Q382 3 332 3Q310 3 275.5 3.0Q241 3 201.0 2.5Q161 2 120.0 1.5Q79 1 42 0V20Q76 22 93.5 28.0Q111 34 117.0 52.0Q123 70 123 106V602Q123 639 117.0 656.5Q111 674 93.5 680.5Q76 687 42 688V708Q63 707 97.0 706.0Q131 705 170 705Q205 705 239.5 706.0Q274 707 297 708Z" transform="translate(72.2, 118.0) scale(0.008000, -0.008000)"/>
    <path d="M297 708V688Q263 687 245.5 680.5Q228 674 222.0 656.5Q216 639 216 602V106Q216 70 222.0 52.0Q228 34 245.5 28.0Q263 22 297 20V0Q274 2 239.5 2.5Q205 3 170 3Q131 3 97.0 2.5Q63 2 42 0V20Q76 22 93.5 28.0Q111 34 117.0 52.0Q123 70 123 106V602Q123 639 117.0 656.5Q111 674 93.5 680.5Q76 687 42 688V708Q63 707 97.0 706.0Q131 705 170 705Q205 705 239.5 706.0Q274 707 297 708Z" transform="translate(76.9, 118.0) scale(0.008000, -0.008000)"/>
    <path d="M376 722Q441 722 481.0 702.5Q521 683 556 657Q569 647 576 647Q595 647 601 708H624Q622 671 621.0 618.0Q620 565 620 478H597Q590 520 580.0 559.0Q570 598 547 626Q518 663 471.0 683.5Q424 704 374 704Q324 704 283.5 679.5Q243 655 214.0 609.0Q185 563 169.5 498.5Q154 434 154 353Q154 173 212.0 89.5Q270 6 392 6Q428 6 454.5 16.5Q481 27 496 37Q515 50 520.0 61.5Q525 73 525 92V188Q525 229 517.0 249.0Q509 269 487.5 276.0Q466 283 424 284V304Q442 303 466.0 302.5Q490 302 516.5 301.5Q543 301 565 301Q598 301 624.5 302.0Q651 303 669 304V284Q647 283 636.0 277.0Q625 271 621.5 253.0Q618 235 618 198V0H598Q597 17 590.5 37.0Q584 57 571 57Q565 57 559.0 54.0Q553 51 538 40Q505 15 468.0 0.5Q431 -14 382 -14Q279 -14 205.5 28.5Q132 71 93.0 151.0Q54 231 54 342Q54 459 96.0 544.0Q138 629 210.5 675.5Q283 722 376 722Z" transform="translate(79.6, 118.0) scale(0.008000, -0.008000)"/>
    <path d="M541 708Q537 673 535.5 640.0Q534 607 534 590Q534 572 535.0 555.5Q536 539 537 528H514Q508 587 497.0 621.5Q486 656 459.5 670.5Q433 685 380 685H297Q263 685 245.5 679.5Q228 674 222.0 656.5Q216 639 216 602V106Q216 70 222.0 52.0Q228 34 245.5 28.5Q263 23 297 23H370Q433 23 465.5 40.0Q498 57 512.5 95.5Q527 134 534 200H557Q554 173 554 128Q554 109 555.5 73.5Q557 38 561 0Q510 2 446.0 2.5Q382 3 332 3Q310 3 275.5 3.0Q241 3 201.0 2.5Q161 2 120.0 1.5Q79 1 42 0V20Q76 22 93.5 28.0Q111 34 117.0 52.0Q123 70 123 106V602Q123 639 117.0 656.5Q111 674 93.5 680.5Q76 687 42 688V708Q79 707 120.0 706.5Q161 706 201.0 705.5Q241 705 275.5 705.0Q310 705 332 705Q378 705 436.5 705.5Q495 706 541 708ZM369 366Q369 366 369.0 356.0Q369 346 369 346H186Q186 346 186.0 356.0Q186 366 186 366ZM398 498Q394 441 394.5 411.0Q395 381 395 356Q395 331 396.0 301.0Q397 271 401 214H378Q374 246 368.5 276.5Q363 307 344.5 326.5Q326 346 282 346V366Q315 366 332.5 379.5Q350 393 358.0 414.0Q366 435 369.0 457.5Q372 480 375 498Z" transform="translate(85.2, 118.0) scale(0.008000, -0.008000)"/>
    <path d="M670 708V688Q636 687 618.5 678.0Q601 669 595.0 649.0Q589 629 589 592V-5Q583 -5 577.5 -5.0Q572 -5 566 -5L146 644V116Q146 80 152.5 59.5Q159 39 178.5 30.5Q198 22 237 20V0Q219 2 190.0 2.5Q161 3 135 3Q110 3 84.5 2.5Q59 2 42 0V20Q76 22 93.5 30.5Q111 39 117.0 59.5Q123 80 123 116V602Q123 639 117.0 656.5Q111 674 93.5 680.5Q76 687 42 688V708Q59 707 84.5 706.0Q110 705 135 705Q157 705 177.0 706.0Q197 707 213 708L566 164V592Q566 629 559.5 649.0Q553 669 533.5 678.0Q514 687 475 688V708Q493 707 522.5 706.0Q552 705 577 705Q603 705 628.5 706.0Q654 707 670 708Z" transform="translate(90.1, 118.0) scale(0.008000, -0.008000)"/>
    <path d="M371 722Q437 722 479.5 702.5Q522 683 555 657Q575 642 585.5 653.5Q596 665 600 708H623Q621 671 620.0 618.0Q619 565 619 478H596Q589 521 583.0 546.5Q577 572 568.5 590.0Q560 608 546 626Q515 667 468.0 685.5Q421 704 369 704Q320 704 280.5 679.5Q241 655 212.5 609.0Q184 563 168.5 498.0Q153 433 153 352Q153 268 170.0 203.5Q187 139 217.5 95.0Q248 51 289.5 28.5Q331 6 379 6Q424 6 473.0 24.0Q522 42 550 82Q572 111 580.5 145.0Q589 179 596 240H619Q619 149 620.0 93.5Q621 38 623 0H600Q596 43 586.5 54.0Q577 65 555 51Q518 25 476.5 5.5Q435 -14 370 -14Q275 -14 203.5 29.0Q132 72 92.5 153.0Q53 234 53 348Q53 460 94.0 544.0Q135 628 206.5 675.0Q278 722 371 722Z" transform="translate(95.7, 118.0) scale(0.008000, -0.008000)"/>
    <path d="M541 708Q537 673 535.5 640.0Q534 607 534 590Q534 572 535.0 555.5Q536 539 537 528H514Q508 587 497.0 621.5Q486 656 459.5 670.5Q433 685 380 685H297Q263 685 245.5 679.5Q228 674 222.0 656.5Q216 639 216 602V106Q216 70 222.0 52.0Q228 34 245.5 28.5Q263 23 297 23H370Q433 23 465.5 40.0Q498 57 512.5 95.5Q527 134 534 200H557Q554 173 554 128Q554 109 555.5 73.5Q557 38 561 0Q510 2 446.0 2.5Q382 3 332 3Q310 3 275.5 3.0Q241 3 201.0 2.5Q161 2 120.0 1.5Q79 1 42 0V20Q76 22 93.5 28.0Q111 34 117.0 52.0Q123 70 123 106V602Q123 639 117.0 656.5Q111 674 93.5 680.5Q76 687 42 688V708Q79 707 120.0 706.5Q161 706 201.0 705.5Q241 705 275.5 705.0Q310 705 332 705Q378 705 436.5 705.5Q495 706 541 708ZM369 366Q369 366 369.0 356.0Q369 346 369 346H186Q186 346 186.0 356.0Q186 366 186 366ZM398 498Q394 441 394.5 411.0Q395 381 395 356Q395 331 396.0 301.0Q397 271 401 214H378Q374 246 368.5 276.5Q363 307 344.5 326.5Q326 346 282 346V366Q315 366 332.5 379.5Q350 393 358.0 414.0Q366 435 369.0 457.5Q372 480 375 498Z" transform="translate(101.2, 118.0) scale(0.008000, -0.008000)"/>
    </g>
  </g>
</svg>