<svg xmlns="http://www.w3.org/2000/svg" viewBox="0 0 280 280" width="280" height="280">
  <rect width="280" height="280" fill="#0C1220"/>
  <g transform="translate(25,0)">
    <g fill="none" stroke="#D4A853" stroke-linecap="round" stroke-linejoin="round">
      <g stroke-width="7">
        <line x1="56" y1="16" x2="56" y2="264"/>
        <line x1="56" y1="100" x2="92" y2="100"/>
        <line x1="56" y1="264" x2="92" y2="264"/>
        <path d="M 92 100 A 82.0 82.0 0 0 1 92 264"/>
      </g>
      <path d="M 68.3 177.0 A 36 36 0 0 1 140.3 177.0 Z"
            fill="#D4A853" stroke="none"/>
      <g stroke-width="3">
        <line x1="104.3" y1="173.0" x2="58.0" y2="173.0"/>
        <line x1="104.3" y1="173.0" x2="61.6" y2="148.3"/>
        <line x1="104.3" y1="173.0" x2="79.7" y2="130.3"/>
        <line x1="104.3" y1="173.0" x2="104.3" y2="123.7"/>
        <line x1="104.3" y1="173.0" x2="128.9" y2="130.3"/>
        <line x1="104.3" y1="173.0" x2="147.0" y2="148.3"/>
        <line x1="104.3" y1="173.0" x2="153.6" y2="173.0"/>
      </g>
    </g>
  </g>
</svg>
