<svg xmlns="http://www.w3.org/2000/svg" viewBox="0 0 1920 1080" preserveAspectRatio="xMidYMid slice">
  <defs>
    <!-- Sky / atmosphere. -->
    <linearGradient id="sky" x1="0" y1="0" x2="0" y2="1">
      <stop offset="0%" stop-color="hsl(225, 55%, 6%)"/>
      <stop offset="60%" stop-color="hsl(220, 60%, 4%)"/>
      <stop offset="100%" stop-color="hsl(225, 70%, 2%)"/>
    </linearGradient>

    <!-- Golden hour sun behind the skyline. -->
    <radialGradient id="sun" cx="72%" cy="38%" r="42%">
      <stop offset="0%"  stop-color="hsl(36, 100%, 70%)" stop-opacity="0.55"/>
      <stop offset="35%" stop-color="hsl(38, 95%, 60%)"  stop-opacity="0.20"/>
      <stop offset="100%" stop-color="hsl(38, 95%, 55%)" stop-opacity="0"/>
    </radialGradient>

    <!-- Cool counter light from lower-left (water reflection). -->
    <radialGradient id="counter" cx="12%" cy="92%" r="55%">
      <stop offset="0%"  stop-color="hsl(212, 95%, 55%)" stop-opacity="0.22"/>
      <stop offset="100%" stop-color="hsl(212, 95%, 55%)" stop-opacity="0"/>
    </radialGradient>

    <!-- Atmospheric haze rising from the city floor. -->
    <linearGradient id="haze" x1="0" y1="0.45" x2="0" y2="1">
      <stop offset="0%"   stop-color="hsl(38, 95%, 65%)" stop-opacity="0"/>
      <stop offset="55%"  stop-color="hsl(38, 95%, 65%)" stop-opacity="0.10"/>
      <stop offset="100%" stop-color="hsl(38, 95%, 65%)" stop-opacity="0.16"/>
    </linearGradient>

    <!-- Top diagonal sheen for the glass-cover gloss. -->
    <linearGradient id="gloss" x1="0" y1="0" x2="1" y2="1">
      <stop offset="0%"   stop-color="hsl(0,0%,100%)" stop-opacity="0.06"/>
      <stop offset="55%"  stop-color="hsl(0,0%,100%)" stop-opacity="0.02"/>
      <stop offset="100%" stop-color="hsl(0,0%,100%)" stop-opacity="0"/>
    </linearGradient>

    <!-- Outer vignette. -->
    <radialGradient id="vignette" cx="50%" cy="50%" r="78%">
      <stop offset="55%" stop-color="black" stop-opacity="0"/>
      <stop offset="100%" stop-color="black" stop-opacity="0.65"/>
    </radialGradient>

    <!-- Lit-window glow. -->
    <radialGradient id="winGlow" cx="50%" cy="50%" r="50%">
      <stop offset="0%" stop-color="hsl(38, 100%, 75%)" stop-opacity="0.85"/>
      <stop offset="60%" stop-color="hsl(38, 100%, 70%)" stop-opacity="0.18"/>
      <stop offset="100%" stop-color="hsl(38, 100%, 70%)" stop-opacity="0"/>
    </radialGradient>

    <!-- Film grain. -->
    <filter id="grain">
      <feTurbulence type="fractalNoise" baseFrequency="0.85" numOctaves="2" stitchTiles="stitch"/>
      <feColorMatrix values="0 0 0 0 0  0 0 0 0 0  0 0 0 0 0  0 0 0 0.08 0"/>
    </filter>

    <!-- Soft atmospheric blur for distant skyline. -->
    <filter id="atmos"><feGaussianBlur stdDeviation="3"/></filter>

    <!-- Reusable building-window block. -->
    <pattern id="windows" patternUnits="userSpaceOnUse" width="18" height="22">
      <rect width="14" height="9" x="2" y="2" fill="hsl(38, 100%, 72%)" fill-opacity="0.55"/>
      <rect width="14" height="9" x="2" y="14" fill="hsl(40, 100%, 68%)" fill-opacity="0.18"/>
    </pattern>
    <pattern id="windowsCool" patternUnits="userSpaceOnUse" width="18" height="22">
      <rect width="14" height="9" x="2" y="2" fill="hsl(210, 100%, 70%)" fill-opacity="0.35"/>
      <rect width="14" height="9" x="2" y="14" fill="hsl(38, 95%, 70%)" fill-opacity="0.4"/>
    </pattern>
  </defs>

  <!-- Atmosphere. -->
  <rect width="1920" height="1080" fill="url(#sky)"/>
  <rect width="1920" height="1080" fill="url(#sun)"/>

  <!-- Distant hazed skyline. -->
  <g filter="url(#atmos)" opacity="0.55">
    <rect x="0"    y="620" width="120" height="180" fill="hsl(225, 35%, 9%)"/>
    <rect x="120"  y="560" width="150" height="240" fill="hsl(225, 35%, 9%)"/>
    <rect x="270"  y="600" width="100" height="200" fill="hsl(225, 35%, 9%)"/>
    <rect x="370"  y="540" width="180" height="260" fill="hsl(225, 35%, 9%)"/>
    <rect x="550"  y="580" width="120" height="220" fill="hsl(225, 35%, 9%)"/>
    <rect x="670"  y="520" width="220" height="280" fill="hsl(225, 35%, 9%)"/>
    <rect x="890"  y="560" width="140" height="240" fill="hsl(225, 35%, 9%)"/>
    <rect x="1030" y="500" width="180" height="300" fill="hsl(225, 35%, 9%)"/>
    <rect x="1210" y="560" width="160" height="240" fill="hsl(225, 35%, 9%)"/>
    <rect x="1370" y="540" width="130" height="260" fill="hsl(225, 35%, 9%)"/>
    <rect x="1500" y="580" width="190" height="220" fill="hsl(225, 35%, 9%)"/>
    <rect x="1690" y="540" width="170" height="260" fill="hsl(225, 35%, 9%)"/>
    <rect x="1860" y="600" width="120" height="200" fill="hsl(225, 35%, 9%)"/>
  </g>
  <rect x="0" y="500" width="1920" height="160" fill="url(#haze)"/>

  <!-- Mid skyline. -->
  <g opacity="0.85">
    <rect x="40"   y="680" width="160" height="220" fill="hsl(225, 40%, 5%)"/>
    <rect x="200"  y="620" width="120" height="280" fill="hsl(225, 40%, 5%)"/>
    <rect x="320"  y="640" width="180" height="260" fill="hsl(225, 40%, 5%)"/>
    <rect x="500"  y="600" width="140" height="300" fill="hsl(225, 40%, 5%)"/>
    <rect x="640"  y="660" width="170" height="240" fill="hsl(225, 40%, 5%)"/>
    <rect x="810"  y="580" width="220" height="320" fill="hsl(225, 40%, 5%)"/>
    <rect x="1030" y="620" width="140" height="280" fill="hsl(225, 40%, 5%)"/>
    <rect x="1170" y="560" width="200" height="340" fill="hsl(225, 40%, 5%)"/>
    <rect x="1370" y="600" width="160" height="300" fill="hsl(225, 40%, 5%)"/>
    <rect x="1530" y="640" width="180" height="260" fill="hsl(225, 40%, 5%)"/>
    <rect x="1710" y="600" width="180" height="300" fill="hsl(225, 40%, 5%)"/>
  </g>

  <!-- Foreground skyline with lit window grids. -->
  <g>
    <!-- A "feature" tower with strong vertical emphasis, lit windows. -->
    <rect x="900" y="380" width="120" height="520" fill="hsl(225, 50%, 3%)"/>
    <rect x="908" y="400" width="104" height="490" fill="url(#windows)"/>
    <!-- Spire. -->
    <line x1="960" y1="380" x2="960" y2="300" stroke="hsl(225, 50%, 3%)" stroke-width="4"/>
    <circle cx="960" cy="298" r="6" fill="hsl(38, 100%, 70%)"/>

    <!-- Surrounding cluster. -->
    <rect x="20"   y="780" width="140" height="120" fill="hsl(225, 50%, 3%)"/>
    <rect x="28"   y="790" width="124" height="100" fill="url(#windows)"/>
    <rect x="160"  y="720" width="140" height="180" fill="hsl(225, 50%, 3%)"/>
    <rect x="168"  y="730" width="124" height="160" fill="url(#windowsCool)"/>
    <rect x="300"  y="700" width="180" height="200" fill="hsl(225, 50%, 3%)"/>
    <rect x="308"  y="710" width="164" height="180" fill="url(#windows)"/>
    <rect x="480"  y="680" width="180" height="220" fill="hsl(225, 50%, 3%)"/>
    <rect x="488"  y="690" width="164" height="200" fill="url(#windowsCool)"/>
    <rect x="660"  y="640" width="220" height="260" fill="hsl(225, 50%, 3%)"/>
    <rect x="668"  y="650" width="204" height="240" fill="url(#windows)"/>
    <rect x="1020" y="700" width="160" height="200" fill="hsl(225, 50%, 3%)"/>
    <rect x="1028" y="710" width="144" height="180" fill="url(#windowsCool)"/>
    <rect x="1180" y="620" width="160" height="280" fill="hsl(225, 50%, 3%)"/>
    <rect x="1188" y="630" width="144" height="260" fill="url(#windows)"/>
    <rect x="1340" y="700" width="180" height="200" fill="hsl(225, 50%, 3%)"/>
    <rect x="1348" y="710" width="164" height="180" fill="url(#windowsCool)"/>
    <rect x="1520" y="680" width="200" height="220" fill="hsl(225, 50%, 3%)"/>
    <rect x="1528" y="690" width="184" height="200" fill="url(#windows)"/>
    <rect x="1720" y="720" width="160" height="180" fill="hsl(225, 50%, 3%)"/>
    <rect x="1728" y="730" width="144" height="160" fill="url(#windowsCool)"/>
    <rect x="1880" y="780" width="40"  height="120" fill="hsl(225, 50%, 3%)"/>
  </g>

  <!-- Spotlit lit-window emphasis on the feature tower. -->
  <circle cx="960" cy="540" r="120" fill="url(#winGlow)"/>

  <!-- Street-level wash. -->
  <rect x="0" y="880" width="1920" height="200" fill="hsl(225, 60%, 2%)"/>
  <rect x="0" y="880" width="1920" height="6" fill="hsl(38, 95%, 70%)" fill-opacity="0.12"/>

  <!-- Water reflection bottom-left. -->
  <rect x="0" y="900" width="1920" height="180" fill="url(#counter)"/>

  <!-- Tiny ambient particles. -->
  <g fill="hsl(38, 100%, 75%)">
    <circle cx="220"  cy="300" r="1.5" fill-opacity="0.4"/>
    <circle cx="540"  cy="220" r="1.2" fill-opacity="0.3"/>
    <circle cx="780"  cy="160" r="1.8" fill-opacity="0.45"/>
    <circle cx="1080" cy="240" r="1.4" fill-opacity="0.35"/>
    <circle cx="1340" cy="180" r="1.6" fill-opacity="0.5"/>
    <circle cx="1620" cy="320" r="1.3" fill-opacity="0.3"/>
    <circle cx="1800" cy="220" r="1.4" fill-opacity="0.4"/>
    <circle cx="380"  cy="420" r="1.0" fill-opacity="0.25"/>
    <circle cx="1180" cy="380" r="1.0" fill-opacity="0.25"/>
    <circle cx="1500" cy="450" r="1.0" fill-opacity="0.22"/>
  </g>

  <!-- Gloss + vignette + grain. -->
  <rect width="1920" height="1080" fill="url(#gloss)"/>
  <rect width="1920" height="1080" fill="url(#vignette)"/>
  <rect width="1920" height="1080" filter="url(#grain)" opacity="0.7"/>
</svg>
